<svg width="59" height="67" viewBox="0 0 59 67" fill="none" xmlns="http://www.w3.org/2000/svg">
<path d="M56.5416 8.375C54.1875 10.2607 51.581 11.703 48.8225 12.6462C47.3419 10.713 45.3743 9.34284 43.1856 8.72096C40.9969 8.09907 38.6929 8.2555 36.5851 9.16909C34.4773 10.0827 32.6674 11.7094 31.4002 13.8291C30.1331 15.9489 29.4697 18.4594 29.5 21.0212V23.8129C25.1798 23.9401 20.8989 22.8521 17.0387 20.6456C13.1785 18.4392 9.85868 15.1829 7.37498 11.1667C7.37498 11.1667 -2.45835 36.2917 19.6666 47.4583C14.6038 51.361 8.57257 53.3178 2.45831 53.0417C24.5833 67 51.625 53.0417 51.625 20.9375C51.6227 20.1599 51.5569 19.3842 51.4283 18.6204C53.9373 15.8106 55.7078 12.263 56.5416 8.375Z" stroke="white" stroke-width="4" stroke-linecap="round" stroke-linejoin="round"/>
</svg>
