<svg width="63" height="79" viewBox="0 0 63 79" fill="none" xmlns="http://www.w3.org/2000/svg">
<rect width="62.6" height="79" rx="31.3" fill="white"/>
<path d="M50.9621 38.3616C50.7752 31.9044 48.6191 25.7881 44.9437 21.2896C41.2684 16.7911 36.3582 14.2583 31.2383 14.22H31.1416C27.6937 14.2167 24.3047 15.3464 21.3077 17.4978C18.3108 19.6492 15.8094 22.7482 14.0496 26.4898C12.2898 30.2315 11.3322 34.487 11.2711 38.8373C11.21 43.1878 12.0475 47.4832 13.7012 51.3014L11.9452 64.5614C11.9424 64.5885 11.9442 64.6162 11.9504 64.6424C11.9567 64.6687 11.9673 64.693 11.9816 64.7137C11.9959 64.7345 12.0135 64.751 12.0333 64.7624C12.0531 64.7739 12.0745 64.7798 12.0963 64.78H12.1265L22.519 61.8627C25.2042 63.4895 28.1448 64.3337 31.1234 64.3327C31.3128 64.3327 31.502 64.3327 31.6912 64.3327C34.3114 64.2383 36.8909 63.49 39.2806 62.131C41.6704 60.7719 43.8231 58.8291 45.6148 56.4145C47.4065 53.9999 48.8015 51.1615 49.7192 48.0628C50.6369 44.9644 51.0594 41.6672 50.9621 38.3616ZM31.5926 59.9744C31.4355 59.9744 31.2784 59.9744 31.1234 59.9744C28.4909 59.9786 25.8961 59.1837 23.5581 57.6569L23.0265 57.3062L15.9786 59.4078L17.2795 50.4093L16.9774 49.7638C15.5348 46.66 14.7577 43.1353 14.7228 39.5369C14.6879 35.9387 15.3963 32.3909 16.7782 29.2433C18.1602 26.0957 20.168 23.4566 22.604 21.586C25.04 19.7154 27.82 18.6779 30.6704 18.5756C30.8288 18.5756 30.9879 18.5756 31.1476 18.5756C35.4511 18.5917 39.5773 20.7406 42.6372 24.5594C45.6972 28.3782 47.446 33.5612 47.5067 38.9915C47.5674 44.422 45.9353 49.6651 42.962 53.5914C39.9886 57.5177 35.9121 59.8128 31.6107 59.9822L31.5926 59.9744Z" fill="black"/>
<path d="M24.22 27.1802C23.9747 27.1863 23.7328 27.2544 23.5087 27.3805C23.2846 27.5067 23.0828 27.6883 22.9152 27.9146C22.442 28.5271 21.119 30.001 21.0425 33.0962C20.966 36.1913 22.6796 39.2536 22.9193 39.683C23.1589 40.1124 26.1955 46.7984 31.1975 49.5098C34.1375 51.1083 35.4262 51.3827 36.2618 51.3827C36.6062 51.3827 36.866 51.337 37.1377 51.3166C38.054 51.2455 40.1221 49.9089 40.5731 48.4553C41.0242 47.0017 41.0544 45.7311 40.9355 45.477C40.8168 45.2228 40.4906 45.0398 39.9992 44.7145C39.5079 44.3893 37.0975 42.7629 36.6444 42.5342C36.4764 42.4355 36.2956 42.3761 36.1108 42.3589C35.9904 42.3669 35.8734 42.4117 35.77 42.4897C35.6665 42.5676 35.5795 42.6763 35.5167 42.8061C35.1141 43.4389 34.1898 44.8136 33.8796 45.2102C33.8119 45.3086 33.7284 45.388 33.6348 45.4433C33.5412 45.4984 33.4393 45.528 33.3359 45.5304C33.1455 45.5198 32.9592 45.4564 32.7903 45.3448C31.3302 44.5623 29.999 43.4418 28.8656 42.0413C27.8066 40.724 26.9081 39.216 26.1995 37.5662C25.9257 36.9258 26.1995 36.5954 26.4492 36.2956C26.6989 35.9956 26.9667 35.5816 27.2244 35.2231C27.436 34.917 27.6123 34.5749 27.7481 34.2067C27.8183 34.0358 27.8538 33.8455 27.8513 33.653C27.8489 33.4604 27.8086 33.2718 27.7339 33.1038C27.6152 32.7836 26.7271 29.635 26.3103 28.3721C25.972 27.292 25.5693 27.2565 25.2168 27.2234C24.9269 27.198 24.5946 27.1853 24.2624 27.1726H24.22" fill="black"/>
</svg>
