<svg width="60" height="75" viewBox="0 0 60 75" fill="none" xmlns="http://www.w3.org/2000/svg">
<rect width="59.1222" height="74.6111" rx="29.5611" fill="white"/>
<path fill-rule="evenodd" clip-rule="evenodd" d="M13.3811 36.9118C21.9987 32.1736 27.7452 29.0499 30.6204 27.5407C38.8299 23.2315 40.5357 22.483 41.6476 22.4583C41.8921 22.4528 42.4389 22.5293 42.7931 22.892C43.0921 23.1982 43.1744 23.6119 43.2138 23.9023C43.2532 24.1926 43.3022 24.8541 43.2632 25.3709C42.8184 31.2698 40.8934 45.5848 39.9141 52.1917C39.4997 54.9873 38.6838 55.9246 37.8939 56.0164C36.1772 56.2157 34.8736 54.5847 33.211 53.2092C30.6092 51.0569 29.1394 49.7171 26.6139 47.6169C23.6953 45.1897 25.5873 43.8557 27.2506 41.6755C27.6859 41.1049 35.2496 32.4228 35.396 31.6352C35.4143 31.5367 35.4313 31.1695 35.2584 30.9756C35.0856 30.7818 34.8305 30.8481 34.6464 30.9008C34.3854 30.9755 30.2291 34.4424 22.1773 41.3015C20.9976 42.3239 19.929 42.822 18.9716 42.7959C17.9161 42.7671 15.8857 42.0427 14.3764 41.4236C12.5251 40.6642 11.0538 40.2626 11.1819 38.9729C11.2486 38.3011 11.9817 37.6141 13.3811 36.9118Z" fill="black"/>
</svg>
