<svg width="63" height="79" viewBox="0 0 63 79" fill="none" xmlns="http://www.w3.org/2000/svg">
<rect width="62.6" height="79" rx="31.3" fill="white"/>
<path d="M44.3981 26.0064C44.3981 24.3261 43.319 22.9693 41.9924 22.9693C40.6658 22.9693 39.5857 24.3261 39.5857 26.0064C39.5857 27.6806 40.6658 29.0374 41.9924 29.0374C43.319 29.0374 44.3981 27.6806 44.3981 26.0064Z" fill="black"/>
<path d="M47.6036 49.7141C47.5145 52.1791 47.1878 53.5184 46.9166 54.4079C46.5522 55.5873 46.1176 56.4306 45.4128 57.3151C44.7158 58.1997 44.0476 58.7469 43.113 59.2016C42.4081 59.549 41.3429 59.9625 39.3897 60.08C37.278 60.1974 36.6523 60.2224 31.2975 60.2224C25.9476 60.2224 25.3169 60.1974 23.2052 60.08C21.252 59.9625 20.1918 59.549 19.4868 59.2016C18.5474 58.7469 17.8841 58.1997 17.1832 57.3151C16.4773 56.4306 16.0427 55.5873 15.6833 54.4079C15.412 53.5184 15.0804 52.1791 14.9962 49.7141C14.8933 47.0492 14.8745 46.2471 14.8745 39.5032C14.8745 32.7454 14.8933 31.9495 14.9962 29.2847C15.0804 26.8198 15.412 25.4817 15.6833 24.5846C16.0427 23.4065 16.4773 22.5682 17.1832 21.6836C17.8841 20.8004 18.5474 20.2519 19.4868 19.7922C20.1918 19.4436 21.252 19.0363 23.2052 18.9189C25.3169 18.8014 25.9476 18.7714 31.2975 18.7714C36.6523 18.7714 37.278 18.8014 39.3897 18.9189C41.3429 19.0363 42.4081 19.4436 43.113 19.7922C44.0476 20.2519 44.7158 20.8004 45.4128 21.6836C46.1176 22.5682 46.5522 23.4065 46.9166 24.5846C47.1878 25.4817 47.5145 26.8198 47.6036 29.2847C47.7016 31.9495 47.7254 32.7454 47.7254 39.5032C47.7254 46.2471 47.7016 47.0492 47.6036 49.7141ZM51.2102 29.0773C51.1122 26.3837 50.7755 24.5434 50.2756 22.9405C49.7668 21.2776 49.0846 19.8683 47.9679 18.4591C46.8562 17.0561 45.7395 16.1953 44.4218 15.5456C43.1467 14.9209 41.6933 14.4911 39.5579 14.3737C37.4225 14.2437 36.7405 14.22 31.2975 14.22C25.8594 14.22 25.1724 14.2437 23.037 14.3737C20.9065 14.4911 19.4542 14.9209 18.1731 15.5456C16.8604 16.1953 15.7437 17.0561 14.632 18.4591C13.5153 19.8683 12.8331 21.2776 12.3193 22.9405C11.8243 24.5434 11.4877 26.3837 11.3847 29.0773C11.2917 31.7722 11.2679 32.6342 11.2679 39.5032C11.2679 46.3659 11.2917 47.2266 11.3847 49.9214C11.4877 52.6101 11.8243 54.4491 12.3193 56.0595C12.8331 57.7162 13.5153 59.1317 14.632 60.5347C15.7437 61.9377 16.8604 62.8048 18.1731 63.4532C19.4542 64.0778 20.9065 64.5027 23.037 64.6264C25.1724 64.75 25.8594 64.78 31.2975 64.78C36.7405 64.78 37.4225 64.75 39.5579 64.6264C41.6933 64.5027 43.1467 64.0778 44.4218 63.4532C45.7395 62.8048 46.8562 61.9377 47.9679 60.5347C49.0846 59.1317 49.7668 57.7162 50.2756 56.0595C50.7755 54.4491 51.1122 52.6101 51.2102 49.9214C51.3082 47.2266 51.3319 46.3659 51.3319 39.5032C51.3319 32.6342 51.3082 31.7722 51.2102 29.0773Z" fill="black"/>
<path d="M31.2975 47.9226C27.6118 47.9226 24.621 44.1545 24.621 39.5032C24.621 34.8443 27.6118 31.0714 31.2975 31.0714C34.9843 31.0714 37.979 34.8443 37.979 39.5032C37.979 44.1545 34.9843 47.9226 31.2975 47.9226ZM31.2975 26.5137C25.616 26.5137 21.0145 32.3331 21.0145 39.5032C21.0145 46.667 25.616 52.4802 31.2975 52.4802C36.9791 52.4802 41.5855 46.667 41.5855 39.5032C41.5855 32.3331 36.9791 26.5137 31.2975 26.5137Z" fill="black"/>
</svg>
